<svg width="146" height="146" viewBox="0 0 146 146" fill="none" xmlns="http://www.w3.org/2000/svg">
<circle cx="73" cy="73" r="73" fill="white"/>
<circle cx="73" cy="73" r="72.2396" stroke="black" stroke-opacity="0.16" stroke-width="1.52083"/>
<path d="M98.0258 49.8832C92.5847 49.8832 86.6531 52.614 80.384 57.9928C77.4098 60.5416 74.8411 63.2723 72.915 65.457C72.915 65.457 72.915 65.457 72.9319 65.4735V65.457C72.9319 65.457 75.9733 68.7008 79.3363 72.1764C81.1445 70.0745 83.7469 67.2113 86.7376 64.6295C92.3143 59.8465 95.9472 58.8369 98.0258 58.8369C105.85 58.8369 112.204 64.9108 112.204 72.375C112.204 79.7895 105.833 85.8634 98.0258 85.913C97.6709 85.913 97.2146 85.8634 96.64 85.7475C98.9214 86.7074 101.372 87.4026 103.704 87.4026C118.033 87.4026 120.839 78.2503 121.025 77.5883C121.447 75.9167 121.667 74.1624 121.667 72.3584C121.667 59.9788 111.055 49.8832 98.0258 49.8832Z" fill="black"/>
<path d="M47.9742 94.8999C53.4155 94.8999 59.3468 92.169 65.6161 86.7903C68.5903 84.2415 71.1589 81.5107 73.085 79.3261C73.085 79.3261 73.085 79.3261 73.0681 79.3096V79.3261C73.0681 79.3261 70.0267 76.0823 66.6638 72.6067C64.8556 74.7086 62.2533 77.5718 59.2623 80.1536C53.6858 84.9366 50.0527 85.9462 47.9742 85.9462C40.1502 85.9296 33.7964 79.8557 33.7964 72.3915C33.7964 64.9771 40.1671 58.9031 47.9742 58.8535C48.3291 58.8535 48.7853 58.9031 49.3599 59.019C47.0786 58.0591 44.6283 57.364 42.2963 57.364C27.9665 57.364 25.1783 66.5162 24.9755 67.1617C24.553 68.8498 24.3333 70.5876 24.3333 72.3915C24.3333 84.8042 34.9455 94.8999 47.9742 94.8999Z" fill="black"/>
<path d="M103.673 87.204C96.3384 87.0219 88.7174 81.3617 87.1627 79.955C83.1411 76.3139 73.8636 66.4665 73.1373 65.6887C66.344 58.2245 57.1343 49.8832 47.9754 49.8832H47.9585H47.9416C36.8225 49.9329 27.4777 57.3143 24.9767 67.1617C25.1626 66.5162 28.8296 57.1819 42.2807 57.5129C49.6146 57.695 57.2695 63.4379 58.8411 64.8446C62.8629 68.4857 72.1403 78.333 72.8669 79.1109C79.6599 86.5585 88.8695 94.8999 98.0284 94.8999H98.0453H98.0622C109.181 94.8503 118.543 87.4688 121.027 77.6214C120.824 78.2668 117.14 87.5184 103.673 87.204Z" fill="#ADB5BD"/>
</svg>
